<mxfile host="Electron" modified="2023-05-08T11:25:27.135Z" agent="Mozilla/5.0 (Windows NT 10.0; Win64; x64) AppleWebKit/537.36 (KHTML, like Gecko) draw.io/21.2.8 Chrome/112.0.5615.165 Electron/24.2.0 Safari/537.36" etag="jdyQYwZ-Mk4mK5ImqhLJ" version="21.2.8" type="device">
  <diagram id="C5RBs43oDa-KdzZeNtuy" name="Page-1">
    <mxGraphModel dx="1434" dy="836" grid="1" gridSize="10" guides="1" tooltips="1" connect="1" arrows="1" fold="1" page="1" pageScale="1" pageWidth="827" pageHeight="1169" math="0" shadow="0">
      <root>
        <mxCell id="WIyWlLk6GJQsqaUBKTNV-0" />
        <mxCell id="WIyWlLk6GJQsqaUBKTNV-1" parent="WIyWlLk6GJQsqaUBKTNV-0" />
        <mxCell id="bWkU651xXIsl2tsBc_MN-1" style="edgeStyle=orthogonalEdgeStyle;rounded=0;orthogonalLoop=1;jettySize=auto;html=1;entryX=0;entryY=0.5;entryDx=0;entryDy=0;" edge="1" parent="WIyWlLk6GJQsqaUBKTNV-1" source="WIyWlLk6GJQsqaUBKTNV-3" target="bWkU651xXIsl2tsBc_MN-0">
          <mxGeometry relative="1" as="geometry" />
        </mxCell>
        <mxCell id="bWkU651xXIsl2tsBc_MN-9" style="edgeStyle=orthogonalEdgeStyle;rounded=0;orthogonalLoop=1;jettySize=auto;html=1;" edge="1" parent="WIyWlLk6GJQsqaUBKTNV-1" source="WIyWlLk6GJQsqaUBKTNV-3" target="bWkU651xXIsl2tsBc_MN-8">
          <mxGeometry relative="1" as="geometry" />
        </mxCell>
        <mxCell id="WIyWlLk6GJQsqaUBKTNV-3" value="user" style="rounded=1;whiteSpace=wrap;html=1;fontSize=12;glass=0;strokeWidth=1;shadow=0;fillColor=#dae8fc;strokeColor=#6c8ebf;" parent="WIyWlLk6GJQsqaUBKTNV-1" vertex="1">
          <mxGeometry x="60" y="170" width="210" height="40" as="geometry" />
        </mxCell>
        <mxCell id="bWkU651xXIsl2tsBc_MN-0" value="Register" style="rounded=1;whiteSpace=wrap;html=1;fontSize=12;glass=0;strokeWidth=1;shadow=0;fillColor=#d5e8d4;strokeColor=#82b366;" vertex="1" parent="WIyWlLk6GJQsqaUBKTNV-1">
          <mxGeometry x="270" y="90" width="120" height="40" as="geometry" />
        </mxCell>
        <mxCell id="bWkU651xXIsl2tsBc_MN-7" style="edgeStyle=orthogonalEdgeStyle;rounded=0;orthogonalLoop=1;jettySize=auto;html=1;" edge="1" parent="WIyWlLk6GJQsqaUBKTNV-1" source="bWkU651xXIsl2tsBc_MN-2" target="bWkU651xXIsl2tsBc_MN-6">
          <mxGeometry relative="1" as="geometry" />
        </mxCell>
        <mxCell id="bWkU651xXIsl2tsBc_MN-2" value="Admin | &lt;b&gt;&lt;font style=&quot;font-size: 15px;&quot;&gt;Normal&lt;/font&gt;&lt;/b&gt;" style="rounded=1;whiteSpace=wrap;html=1;fontSize=12;glass=0;strokeWidth=1;shadow=0;fillColor=#f8cecc;strokeColor=#b85450;" vertex="1" parent="WIyWlLk6GJQsqaUBKTNV-1">
          <mxGeometry x="60" y="230" width="210" height="40" as="geometry" />
        </mxCell>
        <mxCell id="bWkU651xXIsl2tsBc_MN-6" value="Database" style="rounded=1;whiteSpace=wrap;html=1;fontSize=12;glass=0;strokeWidth=1;shadow=0;fillColor=#f8cecc;strokeColor=#b85450;" vertex="1" parent="WIyWlLk6GJQsqaUBKTNV-1">
          <mxGeometry x="70" y="350" width="125" height="40" as="geometry" />
        </mxCell>
        <mxCell id="bWkU651xXIsl2tsBc_MN-12" style="edgeStyle=orthogonalEdgeStyle;rounded=0;orthogonalLoop=1;jettySize=auto;html=1;" edge="1" parent="WIyWlLk6GJQsqaUBKTNV-1" source="bWkU651xXIsl2tsBc_MN-8" target="bWkU651xXIsl2tsBc_MN-10">
          <mxGeometry relative="1" as="geometry">
            <Array as="points">
              <mxPoint x="418" y="290" />
            </Array>
          </mxGeometry>
        </mxCell>
        <mxCell id="bWkU651xXIsl2tsBc_MN-8" value="Login" style="rounded=1;whiteSpace=wrap;html=1;fontSize=12;glass=0;strokeWidth=1;shadow=0;fillColor=#dae8fc;strokeColor=#6c8ebf;" vertex="1" parent="WIyWlLk6GJQsqaUBKTNV-1">
          <mxGeometry x="375" y="170" width="85" height="40" as="geometry" />
        </mxCell>
        <mxCell id="bWkU651xXIsl2tsBc_MN-16" style="edgeStyle=orthogonalEdgeStyle;rounded=0;orthogonalLoop=1;jettySize=auto;html=1;" edge="1" parent="WIyWlLk6GJQsqaUBKTNV-1" source="bWkU651xXIsl2tsBc_MN-10" target="bWkU651xXIsl2tsBc_MN-15">
          <mxGeometry relative="1" as="geometry">
            <Array as="points">
              <mxPoint x="500" y="340" />
              <mxPoint x="330" y="340" />
            </Array>
          </mxGeometry>
        </mxCell>
        <mxCell id="bWkU651xXIsl2tsBc_MN-17" style="edgeStyle=orthogonalEdgeStyle;rounded=0;orthogonalLoop=1;jettySize=auto;html=1;exitX=0.5;exitY=0;exitDx=0;exitDy=0;entryX=0;entryY=0.5;entryDx=0;entryDy=0;" edge="1" parent="WIyWlLk6GJQsqaUBKTNV-1" source="bWkU651xXIsl2tsBc_MN-10" target="bWkU651xXIsl2tsBc_MN-14">
          <mxGeometry relative="1" as="geometry" />
        </mxCell>
        <mxCell id="bWkU651xXIsl2tsBc_MN-10" value="&lt;font style=&quot;font-size: 24px;&quot;&gt;if&lt;/font&gt;" style="rhombus;whiteSpace=wrap;html=1;fillColor=#f0a30a;fontColor=#000000;strokeColor=#BD7000;" vertex="1" parent="WIyWlLk6GJQsqaUBKTNV-1">
          <mxGeometry x="460" y="250" width="80" height="80" as="geometry" />
        </mxCell>
        <mxCell id="bWkU651xXIsl2tsBc_MN-19" style="edgeStyle=orthogonalEdgeStyle;rounded=0;orthogonalLoop=1;jettySize=auto;html=1;" edge="1" parent="WIyWlLk6GJQsqaUBKTNV-1" source="bWkU651xXIsl2tsBc_MN-14" target="bWkU651xXIsl2tsBc_MN-18">
          <mxGeometry relative="1" as="geometry" />
        </mxCell>
        <mxCell id="bWkU651xXIsl2tsBc_MN-23" style="edgeStyle=orthogonalEdgeStyle;rounded=0;orthogonalLoop=1;jettySize=auto;html=1;exitX=0.25;exitY=1;exitDx=0;exitDy=0;" edge="1" parent="WIyWlLk6GJQsqaUBKTNV-1" source="bWkU651xXIsl2tsBc_MN-14" target="bWkU651xXIsl2tsBc_MN-20">
          <mxGeometry relative="1" as="geometry">
            <Array as="points">
              <mxPoint x="620" y="130" />
              <mxPoint x="620" y="230" />
              <mxPoint x="750" y="230" />
            </Array>
          </mxGeometry>
        </mxCell>
        <mxCell id="bWkU651xXIsl2tsBc_MN-24" style="edgeStyle=orthogonalEdgeStyle;rounded=0;orthogonalLoop=1;jettySize=auto;html=1;exitX=0.25;exitY=1;exitDx=0;exitDy=0;entryX=0;entryY=0.5;entryDx=0;entryDy=0;" edge="1" parent="WIyWlLk6GJQsqaUBKTNV-1" source="bWkU651xXIsl2tsBc_MN-14" target="bWkU651xXIsl2tsBc_MN-21">
          <mxGeometry relative="1" as="geometry">
            <Array as="points">
              <mxPoint x="620" y="130" />
              <mxPoint x="620" y="330" />
            </Array>
          </mxGeometry>
        </mxCell>
        <mxCell id="bWkU651xXIsl2tsBc_MN-25" style="edgeStyle=orthogonalEdgeStyle;rounded=0;orthogonalLoop=1;jettySize=auto;html=1;exitX=0;exitY=1;exitDx=0;exitDy=0;entryX=0;entryY=0.5;entryDx=0;entryDy=0;" edge="1" parent="WIyWlLk6GJQsqaUBKTNV-1" source="bWkU651xXIsl2tsBc_MN-14" target="bWkU651xXIsl2tsBc_MN-22">
          <mxGeometry relative="1" as="geometry" />
        </mxCell>
        <mxCell id="bWkU651xXIsl2tsBc_MN-14" value="Norma User Login" style="rounded=1;whiteSpace=wrap;html=1;fillColor=#b1ddf0;strokeColor=#10739e;" vertex="1" parent="WIyWlLk6GJQsqaUBKTNV-1">
          <mxGeometry x="620" y="80" width="140" height="50" as="geometry" />
        </mxCell>
        <mxCell id="bWkU651xXIsl2tsBc_MN-28" style="edgeStyle=orthogonalEdgeStyle;rounded=0;orthogonalLoop=1;jettySize=auto;html=1;" edge="1" parent="WIyWlLk6GJQsqaUBKTNV-1" source="bWkU651xXIsl2tsBc_MN-15" target="bWkU651xXIsl2tsBc_MN-27">
          <mxGeometry relative="1" as="geometry">
            <Array as="points">
              <mxPoint x="340" y="440" />
              <mxPoint x="133" y="440" />
            </Array>
          </mxGeometry>
        </mxCell>
        <mxCell id="bWkU651xXIsl2tsBc_MN-32" style="edgeStyle=orthogonalEdgeStyle;rounded=0;orthogonalLoop=1;jettySize=auto;html=1;exitX=0.5;exitY=1;exitDx=0;exitDy=0;entryX=0.5;entryY=0;entryDx=0;entryDy=0;" edge="1" parent="WIyWlLk6GJQsqaUBKTNV-1" source="bWkU651xXIsl2tsBc_MN-15" target="bWkU651xXIsl2tsBc_MN-29">
          <mxGeometry relative="1" as="geometry" />
        </mxCell>
        <mxCell id="bWkU651xXIsl2tsBc_MN-33" style="edgeStyle=orthogonalEdgeStyle;rounded=0;orthogonalLoop=1;jettySize=auto;html=1;entryX=0.646;entryY=-0.02;entryDx=0;entryDy=0;entryPerimeter=0;" edge="1" parent="WIyWlLk6GJQsqaUBKTNV-1" source="bWkU651xXIsl2tsBc_MN-15" target="bWkU651xXIsl2tsBc_MN-30">
          <mxGeometry relative="1" as="geometry">
            <Array as="points">
              <mxPoint x="340" y="440" />
              <mxPoint x="504" y="440" />
            </Array>
          </mxGeometry>
        </mxCell>
        <mxCell id="bWkU651xXIsl2tsBc_MN-35" style="edgeStyle=orthogonalEdgeStyle;rounded=0;orthogonalLoop=1;jettySize=auto;html=1;entryX=0.586;entryY=-0.02;entryDx=0;entryDy=0;entryPerimeter=0;" edge="1" parent="WIyWlLk6GJQsqaUBKTNV-1" source="bWkU651xXIsl2tsBc_MN-15" target="bWkU651xXIsl2tsBc_MN-34">
          <mxGeometry relative="1" as="geometry">
            <Array as="points">
              <mxPoint x="340" y="440" />
              <mxPoint x="242" y="440" />
            </Array>
          </mxGeometry>
        </mxCell>
        <mxCell id="bWkU651xXIsl2tsBc_MN-15" value="Admin User Login" style="rounded=1;whiteSpace=wrap;html=1;fillColor=#fad9d5;strokeColor=#ae4132;" vertex="1" parent="WIyWlLk6GJQsqaUBKTNV-1">
          <mxGeometry x="270" y="370" width="140" height="50" as="geometry" />
        </mxCell>
        <mxCell id="bWkU651xXIsl2tsBc_MN-18" value="Show task, by category" style="rounded=1;whiteSpace=wrap;html=1;fillColor=#e3c800;fontColor=#000000;strokeColor=#B09500;" vertex="1" parent="WIyWlLk6GJQsqaUBKTNV-1">
          <mxGeometry x="630" y="180" width="180" height="40" as="geometry" />
        </mxCell>
        <mxCell id="bWkU651xXIsl2tsBc_MN-20" value="take task" style="rounded=1;whiteSpace=wrap;html=1;fillColor=#e3c800;fontColor=#000000;strokeColor=#B09500;" vertex="1" parent="WIyWlLk6GJQsqaUBKTNV-1">
          <mxGeometry x="700" y="250" width="100" height="40" as="geometry" />
        </mxCell>
        <mxCell id="bWkU651xXIsl2tsBc_MN-21" value="Result Download" style="rounded=1;whiteSpace=wrap;html=1;fillColor=#e3c800;fontColor=#000000;strokeColor=#B09500;" vertex="1" parent="WIyWlLk6GJQsqaUBKTNV-1">
          <mxGeometry x="680" y="310" width="120" height="40" as="geometry" />
        </mxCell>
        <mxCell id="bWkU651xXIsl2tsBc_MN-22" value="Attempted task" style="rounded=1;whiteSpace=wrap;html=1;fillColor=#e3c800;fontColor=#000000;strokeColor=#B09500;" vertex="1" parent="WIyWlLk6GJQsqaUBKTNV-1">
          <mxGeometry x="670" y="380" width="130" height="40" as="geometry" />
        </mxCell>
        <mxCell id="bWkU651xXIsl2tsBc_MN-27" value="Category task operation crud" style="rounded=1;whiteSpace=wrap;html=1;fillColor=#fad9d5;strokeColor=#ae4132;" vertex="1" parent="WIyWlLk6GJQsqaUBKTNV-1">
          <mxGeometry x="62.5" y="490" width="117.5" height="50" as="geometry" />
        </mxCell>
        <mxCell id="bWkU651xXIsl2tsBc_MN-29" value="task operation crud" style="rounded=1;whiteSpace=wrap;html=1;fillColor=#fad9d5;strokeColor=#ae4132;" vertex="1" parent="WIyWlLk6GJQsqaUBKTNV-1">
          <mxGeometry x="295.62" y="490" width="88.75" height="50" as="geometry" />
        </mxCell>
        <mxCell id="bWkU651xXIsl2tsBc_MN-30" value="Question operation crud" style="rounded=1;whiteSpace=wrap;html=1;fillColor=#fad9d5;strokeColor=#ae4132;" vertex="1" parent="WIyWlLk6GJQsqaUBKTNV-1">
          <mxGeometry x="420" y="550" width="130" height="50" as="geometry" />
        </mxCell>
        <mxCell id="bWkU651xXIsl2tsBc_MN-34" value="task analysis" style="rounded=1;whiteSpace=wrap;html=1;fillColor=#fad9d5;strokeColor=#ae4132;" vertex="1" parent="WIyWlLk6GJQsqaUBKTNV-1">
          <mxGeometry x="190" y="550" width="88.75" height="50" as="geometry" />
        </mxCell>
      </root>
    </mxGraphModel>
  </diagram>
</mxfile>
